<svg xmlns="http://www.w3.org/2000/svg" xmlns:xlink="http://www.w3.org/1999/xlink" version="1.1" id="Layer_1" x="0px" y="0px" viewBox="0 0 50 50" style="enable-background:new 0 0 50 50;" xml:space="preserve">
<style type="text/css">
	.st0{fill:#FFFFFF;}
</style>
<g id="surface1">
	<path class="st0" d="M20.5-0.1c-3.4,0-6.2,2.8-6.2,6.1v0.7H7.3c-1,0-1.7,0.8-1.7,1.7v1.7H3.8v3.4h3.5v25.5c0,2.8,2.4,5.1,5.2,5.1   h21c2.9,0,5.2-2.3,5.2-5.1V13.6h3.5v-3.4h-1.7V8.5c0-0.9-0.8-1.7-1.7-1.7h-6.9V6.1c0-3.3-2.8-6.1-6.2-6.1H20.5z M20.5,3.4h5.2   c1.4,0,2.6,1.1,2.6,2.6v0.7H17.9V6.1C17.9,4.6,19,3.4,20.5,3.4z M10.8,13.6h9c0.2,0,0.4,0.1,0.7,0.1h5.2c0.2,0,0.4,0,0.7-0.1h9   v25.5c0,1-0.8,1.7-1.7,1.7h-21c-1,0-1.7-0.7-1.7-1.7V13.6z M14.3,17v20.4h3.5V17H14.3z M21.3,17v20.4h3.5V17H21.3z M28.3,17v20.4   h3.5V17H28.3z"/>
</g>
</svg>