<?xml version="1.0" encoding="utf-8"?>
<!-- Generator: Adobe Illustrator 22.1.0, SVG Export Plug-In . SVG Version: 6.00 Build 0)  -->
<svg version="1.1" id="Layer_1" xmlns="http://www.w3.org/2000/svg" xmlns:xlink="http://www.w3.org/1999/xlink" x="0px" y="0px"
	 viewBox="0 0 511 588" style="enable-background:new 0 0 511 588;" xml:space="preserve">
<style type="text/css">
	.st0{display:none;fill:#FFFFFF;}
	.st1{display:none;}
	.st2{display:inline;}
	.st3{fill:#FFFFFF;}
	.st4{fill:#003F72;}
	.st5{display:inline;fill:#FFFFFF;}
</style>
<rect x="-75.6" y="212.5" class="st0" width="560" height="116.7"/>
<rect x="-730" y="-5" class="st0" width="1952.9" height="567"/>
<g class="st1">
	<g class="st2">
		<g>
			<path class="st3" d="M25.8,290.1V42.6c0-11.4,8.5-20.6,18.8-20.6h188.1c10.4,0,18.8,9.2,18.8,20.6v121.3l18.8-20.6V42.6
				c0-22.8-16.8-41.2-37.6-41.2H44.6C23.8,1.4,6.9,19.8,6.9,42.6v247.5c0,22.8,16.8,41.2,37.6,41.2H148v-20.6H44.6
				C34.2,310.8,25.8,301.5,25.8,290.1z M213.9,63.2H63.4v20.6h150.5V63.2z M213.9,104.5H63.4v20.6h150.5V104.5z M213.9,145.8H63.4
				v20.6h150.5V145.8z M63.4,207.6h75.3V187H63.4V207.6z M302.4,187l-13.3-14.6c-3.7-4-8.5-6-13.3-6c-4.8,0-9.6,2-13.3,6L181.8,261
				c-3.7,4-14.9,19.6-14.9,24.9l-9.4,45.5l41.5-10.3c0,0,19-12.3,22.7-16.4l80.8-88.5C309.8,208.1,309.8,195,302.4,187z M215,297.4
				c-1.1,1.1-4.8,3.8-9.3,7l-24.4-26.7c2.5-3.8,5.3-7.5,7-9.4l60.8-66.7l26.6,29.2L215,297.4z"/>
		</g>
	</g>
</g>
<g class="st1">
	<g class="st2">
		<path d="M405.1,158l-4.1,4l-11.3-11.1l4.1-4c1.3-1.3,3.2-1.4,4.3-0.3l7.4,7.3C406.5,154.9,406.3,156.8,405.1,158z M387.7,152.8
			l11.3,11.1l-27,26.6c-0.1,0.1-0.5,0.5-1,0.6c-0.1,0-0.1,0-0.2,0.1l-14.1,4.4c-0.4,0.1-0.8,0-1-0.2c-0.3-0.3-0.3-0.6-0.2-1
			l4.5-13.9c0-0.1,0-0.1,0.1-0.2c0.1-0.5,0.5-0.8,0.6-0.9l5.1-5h-17.2c-0.7,0-1.3-0.6-1.3-1.2c0-0.7,0.6-1.2,1.3-1.2h19.7
			L387.7,152.8z M368.6,189.6l-7-6.9l-1.9,5.8l3,2.9L368.6,189.6z M387.3,157.2c-0.4-0.4-1.1-0.4-1.5,0l-21.1,20.7
			c-0.4,0.4-0.4,1,0,1.4c0.4,0.4,1.1,0.4,1.5,0l21.1-20.7C387.7,158.2,387.7,157.6,387.3,157.2z M386,196.6c0,0.7-0.6,1.3-1.4,1.3
			h-24.9l-2.2,0.7c-0.5,0.1-0.9,0.2-1.4,0.2c-1,0-1.9-0.3-2.7-0.9h-12.9c-0.8,0-1.4-0.6-1.4-1.3v-56.4c0-0.7,0.6-1.3,1.4-1.3h5.1
			v2.1c0,0.7,0.6,1.3,1.4,1.3c0.8,0,1.4-0.6,1.4-1.3v-2.1h7.9v2.1c0,0.7,0.6,1.3,1.4,1.3c0.8,0,1.4-0.6,1.4-1.3v-2.1h6.8v2.1
			c0,0.7,0.6,1.3,1.4,1.3c0.8,0,1.4-0.6,1.4-1.3v-2.1h7.5v2.1c0,0.7,0.6,1.3,1.4,1.3c0.8,0,1.4-0.6,1.4-1.3v-2.1h5.8
			c0.8,0,1.4,0.6,1.4,1.3v9.3l1.4-1.4l2.7-2.6v-5.3c0-3-2.5-5.4-5.5-5.4h-5.8v-3.2c0-0.7-0.6-1.3-1.4-1.3c-0.8,0-1.4,0.6-1.4,1.3
			v3.2h-7.5v-3.2c0-0.7-0.6-1.3-1.4-1.3c-0.8,0-1.4,0.6-1.4,1.3v3.2H359v-3.2c0-0.7-0.6-1.3-1.4-1.3c-0.8,0-1.4,0.6-1.4,1.3v3.2
			h-7.9v-3.2c0-0.7-0.6-1.3-1.4-1.3c-0.8,0-1.4,0.6-1.4,1.3v3.2h-5.1c-3,0-5.5,2.4-5.5,5.4v56.4c0,3,2.5,5.4,5.5,5.4h44.1
			c3,0,5.5-2.4,5.5-5.4v-19.5l-4.1,4L386,196.6L386,196.6L386,196.6z M375.4,150.9h-26.7c-0.7,0-1.3,0.6-1.3,1.2
			c0,0.7,0.6,1.2,1.3,1.2h26.7c0.7,0,1.3-0.6,1.3-1.2C376.6,151.5,376.1,150.9,375.4,150.9z M375.4,160.9h-26.7
			c-0.7,0-1.3,0.6-1.3,1.2c0,0.7,0.6,1.2,1.3,1.2h26.7c0.7,0,1.3-0.6,1.3-1.2C376.6,161.4,376.1,160.9,375.4,160.9z"/>
	</g>
	<g class="st2">
	</g>
	<g class="st2">
	</g>
	<g class="st2">
	</g>
	<g class="st2">
	</g>
	<g class="st2">
	</g>
	<g class="st2">
	</g>
	<g class="st2">
	</g>
	<g class="st2">
	</g>
	<g class="st2">
	</g>
	<g class="st2">
	</g>
	<g class="st2">
	</g>
	<g class="st2">
	</g>
	<g class="st2">
	</g>
	<g class="st2">
	</g>
	<g class="st2">
	</g>
</g>
<g class="st1">
	<g class="st2">
		<path d="M433.6,147.9h-4.5l-3.2,5.1l-3.2-5.1h-4.5l5.4,8.8l-6.1,9.8h8.8v-3.3h-2l1.7-2.7l3.7,6h4.7l-6.1-9.8L433.6,147.9z
			 M439,141.2l-4.8-5.2c-1-1.1-3.1-2.1-4.6-2.1h-16c-1.5,0-2.7,1.3-2.7,2.9v31.4c0,1.6,1.2,2.9,2.7,2.9h24.6c1.5,0,2.7-1.3,2.7-2.9
			v-22.1C440.9,144.5,440,142.3,439,141.2z M437.5,142.8c0.1,0.1,0.2,0.3,0.3,0.4h-5.5v-5.9c0.1,0.1,0.3,0.2,0.4,0.3L437.5,142.8z
			 M438.7,168.2c0,0.3-0.2,0.6-0.5,0.6h-24.6c-0.3,0-0.5-0.3-0.5-0.6v-31.4c0-0.3,0.2-0.6,0.5-0.6h16c0.2,0,0.3,0,0.5,0.1v9.2h8.5
			c0,0.2,0.1,0.4,0.1,0.6V168.2z"/>
	</g>
	<g class="st2">
	</g>
	<g class="st2">
	</g>
	<g class="st2">
	</g>
	<g class="st2">
	</g>
	<g class="st2">
	</g>
	<g class="st2">
	</g>
	<g class="st2">
	</g>
	<g class="st2">
	</g>
	<g class="st2">
	</g>
	<g class="st2">
	</g>
	<g class="st2">
	</g>
	<g class="st2">
	</g>
	<g class="st2">
	</g>
	<g class="st2">
	</g>
	<g class="st2">
	</g>
</g>
<g>
	<g>
		<g>
			<path class="st3" d="M291.6,49H169.3V16c0-3.3-1.2-6.4-3.4-8.5c-2.1-2.1-5-3-7.7-2.3L7.7,38.2C3.2,39.2,0,43.7,0,49v242
				c0,5.3,3.2,9.8,7.7,10.8l150.5,33c0.6,0.1,1.1,0.2,1.7,0.2c2.2,0,4.3-0.9,6-2.5c2.2-2.1,3.4-5.2,3.4-8.5v-33h122.3
				c5.2,0,9.4-4.9,9.4-11V60C301,53.9,296.8,49,291.6,49z M129.4,206.8c3.4,4.6,3,11.5-0.9,15.5c-1.8,1.8-4,2.7-6.2,2.7
				c-2.6,0-5.2-1.3-7.1-3.8l-27.4-36.5l-24,36.1c-1.9,2.8-4.6,4.2-7.4,4.2c-2,0-4-0.7-5.8-2.3c-4.1-3.7-4.8-10.6-1.7-15.4l26.2-39.4
				l-25.9-34.6c-3.4-4.6-3-11.5,0.9-15.5c3.9-4,9.8-3.6,13.3,1L87,150.1l27.9-41.9c3.2-4.8,9.1-5.7,13.2-1.9
				c4.1,3.7,4.8,10.6,1.6,15.4L99.6,167L129.4,206.8z M282.2,269H169.3v-22h28.2c5.2,0,9.4-4.9,9.4-11s-4.2-11-9.4-11h-28.2v-22
				h28.2c5.2,0,9.4-4.9,9.4-11c0-6.1-4.2-11-9.4-11h-28.2v-22h28.2c5.2,0,9.4-4.9,9.4-11s-4.2-11-9.4-11h-28.2v-22h28.2
				c5.2,0,9.4-4.9,9.4-11c0-6.1-4.2-11-9.4-11h-28.2V71h112.9V269z"/>
		</g>
	</g>
	<g>
		<g>
			<path class="st3" d="M254,93h-18.8c-5.2,0-9.4,4.9-9.4,11c0,6.1,4.2,11,9.4,11H254c5.2,0,9.4-4.9,9.4-11
				C263.4,97.9,259.2,93,254,93z"/>
		</g>
	</g>
	<g>
		<g>
			<path class="st3" d="M254,137h-18.8c-5.2,0-9.4,4.9-9.4,11c0,6.1,4.2,11,9.4,11H254c5.2,0,9.4-4.9,9.4-11
				C263.4,141.9,259.2,137,254,137z"/>
		</g>
	</g>
	<g>
		<g>
			<path class="st3" d="M254,181h-18.8c-5.2,0-9.4,4.9-9.4,11c0,6.1,4.2,11,9.4,11H254c5.2,0,9.4-4.9,9.4-11
				C263.4,185.9,259.2,181,254,181z"/>
		</g>
	</g>
	<g>
		<g>
			<path class="st3" d="M254,225h-18.8c-5.2,0-9.4,4.9-9.4,11s4.2,11,9.4,11H254c5.2,0,9.4-4.9,9.4-11S259.2,225,254,225z"/>
		</g>
	</g>
	<g>
	</g>
	<g>
	</g>
	<g>
	</g>
	<g>
	</g>
	<g>
	</g>
	<g>
	</g>
	<g>
	</g>
	<g>
	</g>
	<g>
	</g>
	<g>
	</g>
	<g>
	</g>
	<g>
	</g>
	<g>
	</g>
	<g>
	</g>
	<g>
	</g>
</g>
<g class="st1">
	<g class="st2">
		<g id="drive-pdf_1_">
			<path class="st3" d="M138.3,102.6L138.3,102.6C140,102.6,140,102.6,138.3,102.6c1.7-7.3,3.3-11,3.3-16.5v-3.7
				c1.7-9.2,1.7-16.5,0-18.4c0,0,0,0,0-1.8l-1.7-1.8l0,0l0,0c0,0,0,1.8-1.7,1.8C134.9,73.2,134.9,86,138.3,102.6L138.3,102.6z
				 M88.1,229.3c-3.3,1.8-6.7,3.7-8.4,5.5c-11.7,11-20.1,23.9-21.7,29.4l0,0l0,0l0,0C68.1,262.3,78.1,251.3,88.1,229.3
				C89.8,229.3,89.8,229.3,88.1,229.3C89.8,229.3,88.1,229.3,88.1,229.3z M242,201.7c-1.7-1.8-8.4-7.3-31.8-7.3c-1.7,0-1.7,0-3.3,0
				l0,0c0,0,0,0,0,1.8c11.7,5.5,23.4,9.2,31.8,9.2c1.7,0,1.7,0,3.3,0l0,0h1.7c0,0,0,0,0-1.8l0,0C243.6,203.6,242,203.6,242,201.7z
				 M267.1-0.3H32.9C14.6-0.3-0.5,16.2-0.5,36.4v257.1c0,20.2,15.1,36.7,33.4,36.7h234.1c18.4,0,33.4-16.5,33.4-36.7V36.4
				C300.5,16.2,285.4-0.3,267.1-0.3z M248.7,216.4c-3.3,1.8-8.4,3.7-15.1,3.7c-13.4,0-33.4-3.7-50.2-12.9
				c-28.4,3.7-50.2,7.3-66.9,14.7c-1.7,0-1.7,0-3.3,1.8c-20.1,38.6-36.8,56.9-50.2,56.9c-3.3,0-5,0-6.7-1.8l-8.4-5.5v-1.8
				c-1.7-3.7-1.7-5.5-1.7-9.2c1.7-9.2,11.7-25.7,31.8-38.6c3.3-1.8,8.4-5.5,15.1-9.2c5-9.2,10-20.2,16.7-33.1
				c8.4-18.4,13.4-36.7,18.4-53.3l0,0c-6.7-22-10-34.9-3.3-60.6c1.7-7.3,6.7-14.7,13.4-14.7h3.3c3.3,0,6.7,1.8,10,3.7
				c11.7,12.9,6.7,42.2,0,66.1c0,1.8,0,1.8,0,1.8c6.7,20.2,16.7,36.7,26.8,47.8c5,3.7,8.4,7.3,15.1,11c8.4,0,15.1-1.8,21.7-1.8
				c20.1,0,33.4,3.7,38.5,12.9c1.7,3.7,1.7,7.3,1.7,11C253.7,207.2,252,212.8,248.7,216.4z M140,144.8c-3.3,12.9-10,27.5-16.7,44.1
				c-3.3,7.3-6.7,12.9-10,20.2h1.7h1.7l0,0c21.7-9.2,41.8-14.7,55.2-16.5c-3.3-1.8-5-3.7-6.7-5.5C156.7,176,146.7,161.3,140,144.8z"
				/>
		</g>
	</g>
	<g class="st2">
	</g>
	<g class="st2">
	</g>
	<g class="st2">
	</g>
	<g class="st2">
	</g>
	<g class="st2">
	</g>
	<g class="st2">
	</g>
	<g class="st2">
	</g>
	<g class="st2">
	</g>
	<g class="st2">
	</g>
	<g class="st2">
	</g>
	<g class="st2">
	</g>
	<g class="st2">
	</g>
	<g class="st2">
	</g>
	<g class="st2">
	</g>
	<g class="st2">
	</g>
</g>
<g class="st1">
	<g class="st2">
		<g>
			<path class="st3" d="M74.8,263v66h150.5v-66v-44H74.8V263z M93.6,241h112.9v22H93.6V241z M93.6,285h112.9v22H93.6V285z"/>
			<polygon class="st3" points="225.2,65 225.2,-1 74.8,-1 74.8,65 74.8,109 225.2,109 			"/>
			<path class="st3" d="M262.9,65h-18.8v44v22H55.9v-22V65H37.1C18.3,65-0.5,87-0.5,109v110c0,22,18.8,44,37.6,44h18.8v-44v-22
				h188.1v22v44h18.8c18.8,0,37.6-22,37.6-44V109C300.5,87,281.7,65,262.9,65z"/>
		</g>
	</g>
	<g class="st2">
	</g>
	<g class="st2">
	</g>
	<g class="st2">
	</g>
	<g class="st2">
	</g>
	<g class="st2">
	</g>
	<g class="st2">
	</g>
	<g class="st2">
	</g>
	<g class="st2">
	</g>
	<g class="st2">
	</g>
	<g class="st2">
	</g>
	<g class="st2">
	</g>
	<g class="st2">
	</g>
	<g class="st2">
	</g>
	<g class="st2">
	</g>
	<g class="st2">
	</g>
</g>
<g class="st1">
	<g class="st2">
		<rect x="168.8" y="33.7" class="st4" width="37.6" height="67.3"/>
		<path class="st4" d="M246.7,0H-0.5v330h301V57.8L246.7,0z M62.2,13.5h163v107.8h-163V13.5z M244.1,316.5H49.7V175.1h194.4V316.5z"
			/>
		<path class="st4" d="M81,215.5h43.9c3.5,0,6.3-3,6.3-6.7c0-3.7-2.8-6.7-6.3-6.7H81c-3.5,0-6.3,3-6.3,6.7
			C74.8,212.5,77.6,215.5,81,215.5z"/>
		<path class="st4" d="M81,242.4h62.7c3.5,0,6.3-3,6.3-6.7c0-3.7-2.8-6.7-6.3-6.7H81c-3.5,0-6.3,3-6.3,6.7
			C74.8,239.4,77.6,242.4,81,242.4z"/>
		<path class="st4" d="M162.5,242.4c1.7,0,3.3-0.7,4.5-2c1.1-1.3,1.8-3,1.8-4.8c0-1.8-0.7-3.5-1.8-4.8c-2.3-2.5-6.5-2.5-8.8,0
			c-1.2,1.3-1.9,3-1.9,4.8c0,1.8,0.7,3.5,1.8,4.8C159.3,241.7,160.8,242.4,162.5,242.4z"/>
	</g>
	<g class="st2">
	</g>
	<g class="st2">
	</g>
	<g class="st2">
	</g>
	<g class="st2">
	</g>
	<g class="st2">
	</g>
	<g class="st2">
	</g>
	<g class="st2">
	</g>
	<g class="st2">
	</g>
	<g class="st2">
	</g>
	<g class="st2">
	</g>
	<g class="st2">
	</g>
	<g class="st2">
	</g>
	<g class="st2">
	</g>
	<g class="st2">
	</g>
	<g class="st2">
	</g>
</g>
<g class="st1">
	<g class="st2">
		<g>
			<g>
				<path d="M296.4,175.9c0-1.6-1.3-3-2.9-3h-30.1c-1.6,0-2.9,1.3-2.9,3c0,1.6,1.3,3,2.9,3h30.1
					C295.1,178.9,296.4,177.6,296.4,175.9z"/>
				<path d="M263.4,184.8c-1.6,0-2.9,1.3-2.9,3s1.3,3,2.9,3h18.3c1.6,0,2.9-1.3,2.9-3s-1.3-3-2.9-3H263.4z"/>
				<path d="M270.3,213.3h-9.8c-3.2,0-5.8-2.7-5.8-5.9v-52.3c0-3.3,2.6-5.9,5.8-5.9h36c3.2,0,5.9,2.7,5.9,5.9v18.3
					c0,1.6,1.3,3,2.9,3s2.9-1.3,2.9-3v-18.3c0-6.6-5.2-11.9-11.7-11.9h-36c-6.5,0-11.7,5.3-11.7,11.9v52.3c0,6.6,5.2,11.9,11.7,11.9
					h9.8c1.6,0,2.9-1.3,2.9-3C273.2,214.7,271.9,213.3,270.3,213.3z"/>
				<path d="M313.3,186.2c-3.4-3.5-9-3.5-12.4,0l-16.1,16.3c-0.3,0.3-0.6,0.8-0.7,1.2l-3.5,11.7c-0.3,1,0,2.2,0.7,2.9
					c0.6,0.6,1.3,0.9,2.1,0.9c0.3,0,0.5,0,0.8-0.1l11.8-3.3c0.5-0.1,0.9-0.4,1.3-0.8l16-16.2C316.7,195.4,316.7,189.7,313.3,186.2z
					 M293.7,210.3l-5.9,1.7l1.7-5.8l10.8-11l4.1,4.2L293.7,210.3z M309.2,194.6l-0.6,0.6l-4.1-4.2l0.6-0.6c1.1-1.2,3-1.2,4.1,0
					C310.3,191.6,310.3,193.5,309.2,194.6z"/>
				<path d="M293.5,161.1h-30.1c-1.6,0-2.9,1.3-2.9,3c0,1.6,1.3,3,2.9,3h30.1c1.6,0,2.9-1.3,2.9-3
					C296.4,162.4,295.1,161.1,293.5,161.1z"/>
			</g>
		</g>
	</g>
	<g class="st2">
	</g>
	<g class="st2">
	</g>
	<g class="st2">
	</g>
	<g class="st2">
	</g>
	<g class="st2">
	</g>
	<g class="st2">
	</g>
	<g class="st2">
	</g>
	<g class="st2">
	</g>
	<g class="st2">
	</g>
	<g class="st2">
	</g>
	<g class="st2">
	</g>
	<g class="st2">
	</g>
	<g class="st2">
	</g>
	<g class="st2">
	</g>
	<g class="st2">
	</g>
</g>
<g class="st1">
	<path class="st5" d="M141.5-5C58.5-5-9,69-9,160s67.5,165,150.5,165S292,251,292,160S224.4-5,141.5-5z M213.8,172.7H153v69.8
		c0,7-5.2,12.7-11.6,12.7s-11.6-5.7-11.6-12.7v-69.8H69.1c-6.4,0-11.6-5.7-11.6-12.7s5.2-12.7,11.6-12.7h60.8V83.8
		c0-7,5.2-12.7,11.6-12.7S153,76.8,153,83.8v63.5h60.8c6.4,0,11.6,5.7,11.6,12.7S220.2,172.7,213.8,172.7z"/>
	<g class="st2">
	</g>
	<g class="st2">
	</g>
	<g class="st2">
	</g>
	<g class="st2">
	</g>
	<g class="st2">
	</g>
	<g class="st2">
	</g>
	<g class="st2">
	</g>
	<g class="st2">
	</g>
	<g class="st2">
	</g>
	<g class="st2">
	</g>
	<g class="st2">
	</g>
	<g class="st2">
	</g>
	<g class="st2">
	</g>
	<g class="st2">
	</g>
	<g class="st2">
	</g>
</g>
<g class="st1">
	<g class="st2">
		<path class="st3" d="M298,251c-10.7-23.8-57.6-38.9-99.1-41.8c-3.7-4.9-7.5-10.1-11.4-15.6c-35.6-50-50-122.7-55.4-161.3
			c-0.6-8.2-1.3-14.9-1.9-20c-0.5-4-1.5-12.4-8.6-12.4c-2.3,0-4.5,1.2-6,3.3c-2.5,3.5-2.2,7.4-1.7,11.8c0.5,5.1,1.3,11.8,2.3,19.5
			c3,39.1,4.5,113.6-20,172.7c-2.6,6.2-5.1,12.1-7.6,17.7c-45.8,16.4-82.8,45.6-88.2,69.8c-2,8.8-0.3,17.2,4.8,23.7
			C11,326.2,18,330,25.8,330c21.7,0,46.4-29.7,73.5-88.2c12-3.9,24-6.6,35.6-8c4.5-0.6,11.8-1.7,16.3-2.6
			c12.3-2.3,26.3-3.3,40.7-2.7c33.2,42.4,60.4,64,80.7,64c10.9,0,20-6.6,25.5-18.4C301.3,266.7,301.4,258.5,298,251z M25.8,310.3
			c-3.4,0-6.3-1.7-9.1-5.3c-1.2-1.5-1.4-2.8-0.9-4.9c2.8-12.5,26.3-33.9,60.5-49.4C56.9,288.3,38.3,310.3,25.8,310.3z M148.6,211.8
			c-4.3,0.8-11.2,1.9-15.4,2.5c-7.8,0.9-15.8,2.4-23.8,4.5c0.3-0.8,0.7-1.6,1-2.4c12-29,19.4-63.8,22.2-103.6
			c11,37.9,25.4,69.4,42.8,93.9c0.5,0.7,1,1.5,1.6,2.2C166.9,209.1,157.4,210.1,148.6,211.8z M284,264.4c-2.7,5.8-6.4,8.5-11.8,8.5
			h0c-12.7,0-32.3-14.8-55.7-41.9c36.2,5.6,62.8,19.1,67.5,29.6C284.7,262.1,284.7,262.9,284,264.4z"/>
	</g>
	<g class="st2">
	</g>
	<g class="st2">
	</g>
	<g class="st2">
	</g>
	<g class="st2">
	</g>
	<g class="st2">
	</g>
	<g class="st2">
	</g>
	<g class="st2">
	</g>
	<g class="st2">
	</g>
	<g class="st2">
	</g>
	<g class="st2">
	</g>
	<g class="st2">
	</g>
	<g class="st2">
	</g>
	<g class="st2">
	</g>
	<g class="st2">
	</g>
	<g class="st2">
	</g>
</g>
<g class="st1">
	<g class="st2">
		<path class="st3" d="M282,118h-8.2V79.8c0-0.2,0-0.5-0.1-0.7c0-1.5-0.5-3-1.6-4.2L206.6,2.2c0,0,0,0-0.1,0
			c-0.4-0.4-0.8-0.8-1.3-1.1c-0.1-0.1-0.3-0.2-0.4-0.3c-0.4-0.2-0.9-0.4-1.3-0.5c-0.1,0-0.2-0.1-0.4-0.1c-0.5-0.1-1-0.2-1.5-0.2
			H40.5c-7.4,0-13.3,5.8-13.3,12.9V118h-8.2C8.5,118,0,126.3,0,136.5v96.2c0,10.2,8.5,18.5,19.1,18.5h8.2v65.8
			c0,7.1,6,12.9,13.3,12.9h219.9c7.3,0,13.3-5.8,13.3-12.9v-65.8h8.2c10.5,0,19-8.3,19-18.5v-96.2C301,126.3,292.5,118,282,118z
			 M40.5,12.9h154.4v66.2c0,3.6,3,6.5,6.7,6.5h58.9V118H40.5V12.9z M140.9,188.5c-16.5-5.6-27.3-14.5-27.3-28.5
			c0-16.5,14.2-29.1,37.6-29.1c11.2,0,19.5,2.3,25.4,4.9l-5,17.6c-4-1.9-11.1-4.6-20.8-4.6c-9.7,0-14.5,4.3-14.5,9.3
			c0,6.2,5.6,8.9,18.5,13.6c17.6,6.3,25.8,15.2,25.8,28.8c0,16.2-12.8,30-40.2,30c-11.4,0-22.6-2.9-28.2-5.9l4.6-18.1
			c6.1,3,15.4,6,25,6c10.3,0,15.8-4.2,15.8-10.5C157.6,196.1,152.8,192.6,140.9,188.5z M23.6,182.2c0-33,24.2-51.3,54.3-51.3
			c11.7,0,20.5,2.3,24.5,4.3l-4.6,17.3c-4.6-1.9-10.9-3.6-18.9-3.6c-17.9,0-31.7,10.5-31.7,32c0,19.4,11.8,31.5,31.9,31.5
			c6.8,0,14.3-1.4,18.7-3.2l3.4,17.1c-4.1,2-13.4,4.2-25.5,4.2C41.3,230.5,23.6,209.7,23.6,182.2z M260.5,313.6H40.5v-62.3h219.9
			V313.6z M245.6,229.1h-26.3l-31.9-96.6h24.7l12.1,40.9c3.4,11.5,6.5,22.5,8.9,34.5h0.4c2.5-11.6,5.6-23.1,9-34.1l12.7-41.3h23.9
			L245.6,229.1z"/>
	</g>
	<g class="st2">
	</g>
	<g class="st2">
	</g>
	<g class="st2">
	</g>
	<g class="st2">
	</g>
	<g class="st2">
	</g>
	<g class="st2">
	</g>
	<g class="st2">
	</g>
	<g class="st2">
	</g>
	<g class="st2">
	</g>
	<g class="st2">
	</g>
	<g class="st2">
	</g>
	<g class="st2">
	</g>
	<g class="st2">
	</g>
	<g class="st2">
	</g>
	<g class="st2">
	</g>
</g>
<g class="st1">
	<path class="st5" d="M275,131H173.4c-3.6,0-6-2.6-6-6.6V13.1c0-7.9-4.8-13.1-12-13.1h-23.9c-7.2,0-12,5.2-12,13.1v111.4
		c0,3.9-2.4,6.6-6,6.6H12c-7.2,0-12,5.2-12,13.1v26.2c0,7.9,4.8,13.1,12,13.1h101.6c3.6,0,6,2.6,6,6.6v111.4c0,7.9,4.8,13.1,12,13.1
		h23.9c7.2,0,12-5.2,12-13.1V190c0-3.9,2.4-6.6,6-6.6H275c7.2,0,12-5.2,12-13.1v-26.2C287,136.3,282.2,131,275,131z"/>
</g>
<g class="st1">
	<g class="st2">
		<path class="st3" d="M193.2,307.3c0.4,0,0.8,0.1,1.2,0.1h94.7c11.1,0,20.1-9.5,20.1-21.2V54.5c0-11.7-9-21.2-20.1-21.2h-94.7
			c-0.4,0-0.8,0-1.2,0.1V5.8L8.3,31.8v277.3l184.9,26.7V307.3z M193.2,209.2h30.7v12.1h-30.7V209.2z M193.2,207.7v-12.3h30.7v12.3
			H193.2z M193.2,193.8v-14.2h30.7v14.2H193.2z M193.2,178.2v-15.8h30.7v15.8H193.2z M193.2,161v-15.1h30.7V161H193.2z M193.2,144.6
			v-15.1h30h0.6v15.1H193.2z M194.4,45.5h94.7c4.7,0,8.6,4.1,8.6,9.1v231.6c0,5-3.9,9.1-8.6,9.1h-94.7c-0.4,0-0.8-0.1-1.2-0.1v-72.5
			h31.9v0h69.8v-95.9h-0.1v-14.9h-35.2h-1.2h-35.2v0h-30V45.6C193.6,45.5,194,45.5,194.4,45.5z M293.4,129.6v91.5H280V134h-9.2v87.1
			h-7.7v-78.2h-9.2v78.2h-6.8v-69.3H238v69.3h-12.9v-58.8V161v-15.1v-1.3v-15.1h33.3h1.2L293.4,129.6L293.4,129.6z M259.6,128.3
			v-15.1h33.9v13.6h-0.1v1.5H259.6z M258.4,128.3h-33.3h-0.6v-15.1h33.9L258.4,128.3L258.4,128.3z M55,186.9
			c3.8,0.1,8.1-0.8,10.6-1.9l1.9,11.2c-2.3,1.3-7.6,2.5-14.4,2.3c-18.8-0.5-28.3-13.9-28.3-31.3c0-20.8,13-32.8,29.6-33.3
			c6.5-0.2,11.6,1.2,13.9,2.4l-2.6,11.4c-2.6-1.2-6.2-2.2-10.7-2.2c-9.9,0.2-17.5,7-17.5,20.7C37.4,178.8,43.9,186.7,55,186.9z
			 M90.3,199.6c-6.7-0.2-13.3-2.3-16.5-4.3l2.6-11.9c3.5,2,9,4.1,14.6,4.2c6.2,0.1,9.5-2.6,9.5-6.9c0-4.1-2.8-6.4-10-9.2
			c-9.7-3.8-16-9.6-16-18.9c0-10.9,8.3-19.4,22.2-19.8c6.8-0.2,11.8,1.2,15.4,2.9l-3.1,12.1c-2.4-1.2-6.7-3-12.6-2.9
			c-5.8,0.1-8.6,3-8.6,6.4c0,4.1,3.3,5.9,11,9c10.7,4.2,15.8,10.3,15.8,19.6C114.6,190.9,106.7,200,90.3,199.6z M156.1,200.4
			L139,200l-20.2-66.7l15.5-0.4l7.8,28.3c2.2,8,4.2,15.7,5.8,24.2l0.3,0c1.6-8.1,3.7-16.2,5.9-24l8.4-29.3l16.2-0.4L156.1,200.4z"/>
	</g>
	<g class="st2">
	</g>
	<g class="st2">
	</g>
	<g class="st2">
	</g>
	<g class="st2">
	</g>
	<g class="st2">
	</g>
	<g class="st2">
	</g>
	<g class="st2">
	</g>
	<g class="st2">
	</g>
	<g class="st2">
	</g>
	<g class="st2">
	</g>
	<g class="st2">
	</g>
	<g class="st2">
	</g>
	<g class="st2">
	</g>
	<g class="st2">
	</g>
	<g class="st2">
	</g>
</g>
</svg>
