<svg xmlns="http://www.w3.org/2000/svg" xmlns:xlink="http://www.w3.org/1999/xlink" version="1.1" id="Layer_1" x="0px" y="0px" viewBox="0 0 511 588" style="enable-background:new 0 0 511 588;" xml:space="preserve">
    <style type="text/css">
        .st0{fill:#FFFFFF;}
    </style>
    <g>
        <path class="st0" d="M275,131H173.4c-3.6,0-6-2.6-6-6.6V13.1c0-7.9-4.8-13.1-12-13.1h-23.9c-7.2,0-12,5.2-12,13.1v111.4   c0,3.9-2.4,6.6-6,6.6H12c-7.2,0-12,5.2-12,13.1v26.2c0,7.9,4.8,13.1,12,13.1h101.6c3.6,0,6,2.6,6,6.6v111.4c0,7.9,4.8,13.1,12,13.1   h23.9c7.2,0,12-5.2,12-13.1V190c0-3.9,2.4-6.6,6-6.6H275c7.2,0,12-5.2,12-13.1v-26.2C287,136.3,282.2,131,275,131z"/>
    </g>
</svg>